<svg width="252" height="27" viewBox="0 0 252 27" fill="none" xmlns="http://www.w3.org/2000/svg">
<path d="M241.65 0.651611V26.2454H238.311V0.651611H241.65ZM249.877 0.651611V3.42896H230.102V0.651611H249.877Z" fill="#2FB76B"/>
<path d="M224.723 18.1067H228.098C227.922 19.7239 227.459 21.1711 226.709 22.4485C225.959 23.7258 224.898 24.7395 223.527 25.4895C222.156 26.2278 220.445 26.5969 218.395 26.5969C216.895 26.5969 215.529 26.3157 214.299 25.7532C213.08 25.1907 212.031 24.3938 211.152 23.3625C210.273 22.3196 209.594 21.0715 209.113 19.6184C208.645 18.1536 208.41 16.5247 208.41 14.7317V12.1829C208.41 10.3899 208.645 8.76685 209.113 7.31372C209.594 5.84888 210.279 4.59497 211.17 3.552C212.072 2.50903 213.156 1.7063 214.422 1.1438C215.688 0.581299 217.111 0.300049 218.693 0.300049C220.627 0.300049 222.262 0.66333 223.598 1.38989C224.934 2.11646 225.971 3.12427 226.709 4.41333C227.459 5.69067 227.922 7.1731 228.098 8.8606H224.723C224.559 7.66528 224.254 6.63989 223.809 5.78442C223.363 4.91724 222.73 4.24927 221.91 3.78052C221.09 3.31177 220.018 3.07739 218.693 3.07739C217.557 3.07739 216.555 3.29419 215.688 3.72778C214.832 4.16138 214.111 4.77661 213.525 5.57349C212.951 6.37036 212.518 7.32544 212.225 8.43872C211.932 9.552 211.785 10.7883 211.785 12.1477V14.7317C211.785 15.9856 211.914 17.1633 212.172 18.2649C212.441 19.3665 212.846 20.3333 213.385 21.1653C213.924 21.9973 214.609 22.6536 215.441 23.134C216.273 23.6028 217.258 23.8372 218.395 23.8372C219.836 23.8372 220.984 23.6086 221.84 23.1516C222.695 22.6946 223.34 22.0383 223.773 21.1829C224.219 20.3274 224.535 19.302 224.723 18.1067Z" fill="#2FB76B"/>
<path d="M205.07 23.4856V26.2454H191.518V23.4856H205.07ZM192.203 0.651611V26.2454H188.811V0.651611H192.203ZM203.277 11.6555V14.4153H191.518V11.6555H203.277ZM204.895 0.651611V3.42896H191.518V0.651611H204.895Z" fill="#2FB76B"/>
<path d="M179.688 18.7747V0.651611H183.062V18.7747C183.062 20.4622 182.717 21.886 182.025 23.0461C181.334 24.2063 180.379 25.0911 179.16 25.7004C177.953 26.2981 176.564 26.5969 174.994 26.5969C173.424 26.5969 172.029 26.3274 170.811 25.7883C169.592 25.2493 168.637 24.429 167.945 23.3274C167.254 22.2258 166.908 20.8372 166.908 19.1614H170.301C170.301 20.2395 170.5 21.1243 170.898 21.8157C171.297 22.5071 171.848 23.0168 172.551 23.345C173.266 23.6731 174.08 23.8372 174.994 23.8372C175.885 23.8372 176.682 23.6497 177.385 23.2747C178.1 22.8879 178.662 22.3196 179.072 21.5696C179.482 20.8079 179.688 19.8762 179.688 18.7747Z" fill="#2FB76B"/>
<path d="M163.867 12.6399V14.2571C163.867 16.179 163.627 17.9016 163.146 19.425C162.666 20.9485 161.975 22.2434 161.072 23.3098C160.17 24.3762 159.086 25.1907 157.82 25.7532C156.566 26.3157 155.16 26.5969 153.602 26.5969C152.09 26.5969 150.701 26.3157 149.436 25.7532C148.182 25.1907 147.092 24.3762 146.166 23.3098C145.252 22.2434 144.543 20.9485 144.039 19.425C143.535 17.9016 143.283 16.179 143.283 14.2571V12.6399C143.283 10.718 143.529 9.00122 144.021 7.4895C144.525 5.96606 145.234 4.67114 146.148 3.60474C147.062 2.52661 148.146 1.7063 149.4 1.1438C150.666 0.581299 152.055 0.300049 153.566 0.300049C155.125 0.300049 156.531 0.581299 157.785 1.1438C159.051 1.7063 160.135 2.52661 161.037 3.60474C161.951 4.67114 162.648 5.96606 163.129 7.4895C163.621 9.00122 163.867 10.718 163.867 12.6399ZM160.51 14.2571V12.6047C160.51 11.0813 160.352 9.73364 160.035 8.56177C159.73 7.38989 159.279 6.40552 158.682 5.60864C158.084 4.81177 157.352 4.20825 156.484 3.7981C155.629 3.38794 154.656 3.18286 153.566 3.18286C152.512 3.18286 151.557 3.38794 150.701 3.7981C149.857 4.20825 149.131 4.81177 148.521 5.60864C147.924 6.40552 147.461 7.38989 147.133 8.56177C146.805 9.73364 146.641 11.0813 146.641 12.6047V14.2571C146.641 15.7922 146.805 17.1516 147.133 18.3352C147.461 19.5071 147.93 20.4973 148.539 21.3059C149.16 22.1028 149.893 22.7063 150.736 23.1165C151.592 23.5266 152.547 23.7317 153.602 23.7317C154.703 23.7317 155.682 23.5266 156.537 23.1165C157.393 22.7063 158.113 22.1028 158.699 21.3059C159.297 20.4973 159.748 19.5071 160.053 18.3352C160.357 17.1516 160.51 15.7922 160.51 14.2571Z" fill="#2FB76B"/>
<path d="M121.979 0.651611H130.451C132.373 0.651611 133.996 0.94458 135.32 1.53052C136.656 2.11646 137.67 2.98364 138.361 4.13208C139.064 5.2688 139.416 6.66919 139.416 8.33325C139.416 9.50513 139.176 10.5774 138.695 11.55C138.227 12.511 137.547 13.3313 136.656 14.011C135.777 14.679 134.723 15.177 133.492 15.5051L132.543 15.8743H124.58L124.545 13.1145H130.557C131.775 13.1145 132.789 12.9036 133.598 12.4817C134.406 12.0481 135.016 11.468 135.426 10.7415C135.836 10.0149 136.041 9.21216 136.041 8.33325C136.041 7.34888 135.848 6.48755 135.461 5.74927C135.074 5.01099 134.465 4.44263 133.633 4.04419C132.812 3.63403 131.752 3.42896 130.451 3.42896H125.371V26.2454H121.979V0.651611ZM136.938 26.2454L130.715 14.6438L134.248 14.6262L140.559 26.0344V26.2454H136.938Z" fill="#2FB76B"/>
<path d="M108.707 16.2083H101.869V13.4485H108.707C110.031 13.4485 111.104 13.2375 111.924 12.8157C112.744 12.3938 113.342 11.8079 113.717 11.0579C114.104 10.3079 114.297 9.45239 114.297 8.49146C114.297 7.61255 114.104 6.78638 113.717 6.01294C113.342 5.2395 112.744 4.61841 111.924 4.14966C111.104 3.66919 110.031 3.42896 108.707 3.42896H102.66V26.2454H99.2676V0.651611H108.707C110.641 0.651611 112.275 0.985596 113.611 1.65356C114.947 2.32153 115.961 3.24731 116.652 4.43091C117.344 5.60278 117.689 6.94458 117.689 8.4563C117.689 10.0969 117.344 11.4973 116.652 12.6575C115.961 13.8176 114.947 14.7024 113.611 15.3118C112.275 15.9094 110.641 16.2083 108.707 16.2083Z" fill="#2FB76B"/>
<path fill-rule="evenodd" clip-rule="evenodd" d="M242.65 3.42891V26.2453H239.311V3.42891H231.102V0.651562H250.877V3.42891H242.65ZM230.802 0.351562V3.72891H239.011V26.5453H242.95V3.72891H251.177V0.351562H230.802Z" fill="#2FB76B"/>
<path fill-rule="evenodd" clip-rule="evenodd" d="M225.466 17.8066H229.432L229.396 18.1391C229.216 19.7942 228.741 21.283 227.968 22.6003C227.189 23.9271 226.087 24.9781 224.671 25.7527L224.67 25.7536C223.243 26.5217 221.48 26.8969 219.395 26.8969C217.856 26.8969 216.448 26.6082 215.174 26.026L215.173 26.0255C213.915 25.4446 212.831 24.6211 211.924 23.5571L211.923 23.5558C211.017 22.4803 210.319 21.1975 209.828 19.7125L209.828 19.7098C209.348 18.211 209.11 16.5506 209.11 14.7316V12.1828C209.11 10.3639 209.348 8.70912 209.828 7.22157L209.828 7.22017C210.319 5.72277 211.023 4.43332 211.942 3.35714L211.943 3.35566C212.874 2.27919 213.994 1.44994 215.3 0.869607C216.609 0.287796 218.075 0 219.693 0C221.664 0 223.351 0.37018 224.741 1.1263C226.124 1.87861 227.202 2.92523 227.969 4.26333C228.743 5.58221 229.217 7.10635 229.396 8.82947L229.431 9.16055H225.461L225.425 8.90134C225.265 7.73193 224.968 6.74124 224.543 5.9229L224.542 5.92142C224.122 5.1042 223.53 4.4799 222.761 4.04094C222.001 3.60644 220.985 3.37734 219.693 3.37734C218.596 3.37734 217.641 3.58647 216.822 3.99568C216.011 4.40707 215.327 4.99038 214.768 5.74971C214.219 6.51189 213.8 7.43175 213.515 8.51502C213.229 9.59937 213.085 10.8095 213.085 12.1477V14.7316C213.085 15.9644 213.212 17.1185 213.464 18.1949C213.726 19.2679 214.118 20.2023 214.637 21.0021C215.15 21.7952 215.801 22.4175 216.59 22.8734C217.369 23.3119 218.3 23.5371 219.395 23.5371C220.809 23.5371 221.903 23.3122 222.698 22.887C223.5 22.4586 224.1 21.8471 224.506 21.0472L224.507 21.0443C224.934 20.2239 225.243 19.2312 225.426 18.0602L225.466 17.8066ZM216.441 23.134C215.609 22.6535 214.924 21.9973 214.385 21.1652C213.846 20.3332 213.441 19.3664 213.172 18.2648C212.914 17.1633 212.785 15.9855 212.785 14.7316V12.1477C212.785 10.7883 212.932 9.55195 213.225 8.43867C213.518 7.32539 213.951 6.37031 214.525 5.57344C215.111 4.77656 215.832 4.16133 216.688 3.72773C217.555 3.29414 218.557 3.07734 219.693 3.07734C221.018 3.07734 222.09 3.31172 222.91 3.78047C223.73 4.24922 224.363 4.91719 224.809 5.78438C225.254 6.63984 225.559 7.66523 225.723 8.86055H229.098C229.087 8.75982 229.076 8.65982 229.063 8.56055C228.866 6.9968 228.414 5.61438 227.709 4.41328C226.971 3.12422 225.934 2.11641 224.598 1.38984C223.262 0.663281 221.627 0.3 219.693 0.3C218.111 0.3 216.688 0.58125 215.422 1.14375C214.156 1.70625 213.072 2.50898 212.17 3.55195C211.279 4.59492 210.594 5.84883 210.113 7.31367C209.645 8.7668 209.41 10.3898 209.41 12.1828V14.7316C209.41 16.5246 209.645 18.1535 210.113 19.6184C210.594 21.0715 211.273 22.3195 212.152 23.3625C213.031 24.3937 214.08 25.1906 215.299 25.7531C216.529 26.3156 217.895 26.5969 219.395 26.5969C221.445 26.5969 223.156 26.2277 224.527 25.4895C225.898 24.7395 226.959 23.7258 227.709 22.4484C228.412 21.2506 228.863 19.9033 229.062 18.4066C229.075 18.3073 229.087 18.2073 229.098 18.1066H225.723C225.535 19.302 225.219 20.3273 224.773 21.1828C224.34 22.0383 223.695 22.6945 222.84 23.1516C221.984 23.6086 220.836 23.8371 219.395 23.8371C218.258 23.8371 217.273 23.6027 216.441 23.134Z" fill="#2FB76B"/>
<path fill-rule="evenodd" clip-rule="evenodd" d="M206.07 23.4855H193.203V14.4152H204.277V11.6555H193.203V3.42891H205.895V0.651562H189.811V26.2453H206.07V23.4855ZM189.511 26.5453V0.351562H206.195V3.72891H193.503V11.3555H204.577V14.7152H193.503V23.1855H206.37V26.5453H189.511Z" fill="#2FB76B"/>
<path fill-rule="evenodd" clip-rule="evenodd" d="M180.688 18.7746C180.688 19.8762 180.482 20.8078 180.072 21.5695C179.662 22.3195 179.1 22.8879 178.385 23.2746C177.682 23.6496 176.885 23.8371 175.994 23.8371C175.08 23.8371 174.266 23.673 173.551 23.3449C172.848 23.0168 172.297 22.507 171.898 21.8156C171.5 21.1242 171.301 20.2395 171.301 19.1613H167.908C167.908 19.2624 167.909 19.3624 167.912 19.4613C167.951 21.0035 168.296 22.2922 168.945 23.3273C169.637 24.4289 170.592 25.2492 171.811 25.7883C173.029 26.3273 174.424 26.5969 175.994 26.5969C177.564 26.5969 178.953 26.298 180.16 25.7004C181.379 25.091 182.334 24.2062 183.025 23.0461C183.717 21.8859 184.063 20.4621 184.063 18.7746V0.651562H180.688V18.7746ZM173.677 23.0726C173.032 22.7713 172.527 22.3052 172.158 21.6658C171.794 21.0332 171.601 20.2046 171.601 19.1613V18.8613H167.608V19.1613C167.608 20.8775 167.962 22.3255 168.691 23.4868C169.415 24.6404 170.417 25.5 171.689 26.0626C172.952 26.6214 174.389 26.8969 175.994 26.8969C177.603 26.8969 179.039 26.5905 180.293 25.9692L180.294 25.9687C181.564 25.3339 182.562 24.4096 183.283 23.1997C184.008 21.9828 184.363 20.5028 184.363 18.7746V0.351562H180.388V18.7746C180.388 19.8394 180.189 20.719 179.809 21.4265C179.425 22.1278 178.903 22.6528 178.243 23.0104C177.588 23.3593 176.841 23.5371 175.994 23.5371C175.117 23.5371 174.346 23.3798 173.677 23.0726Z" fill="#2FB76B"/>
<path fill-rule="evenodd" clip-rule="evenodd" d="M150.314 26.0273L150.313 26.0268C149.018 25.446 147.893 24.6048 146.939 23.5064L146.938 23.505C145.995 22.405 145.269 21.0745 144.754 19.5192C144.239 17.9601 143.983 16.2048 143.983 14.257V12.6398C143.983 10.6928 144.232 8.94379 144.736 7.39658L144.737 7.39524C145.251 5.84041 145.977 4.51016 146.92 3.41037C147.862 2.29925 148.982 1.45133 150.278 0.87003L150.279 0.869605C151.586 0.288551 153.017 0 154.566 0C156.161 0 157.61 0.287955 158.907 0.869817C160.215 1.45097 161.335 2.29897 162.266 3.4109C163.209 4.51137 163.924 5.84243 164.415 7.39792C164.918 8.94481 165.167 10.6934 165.167 12.6398V14.257C165.167 16.2035 164.924 17.9574 164.433 19.5152C163.942 21.0712 163.233 22.4027 162.301 23.5035C161.37 24.604 160.25 25.446 158.943 26.027C157.646 26.6089 156.197 26.8969 154.602 26.8969C153.052 26.8969 151.621 26.6083 150.314 26.0273ZM158.82 25.7531C160.086 25.1906 161.17 24.3762 162.072 23.3098C162.975 22.2434 163.666 20.9484 164.146 19.425C164.627 17.9016 164.867 16.1789 164.867 14.257V12.6398C164.867 10.718 164.621 9.00117 164.129 7.48945C163.648 5.96602 162.951 4.67109 162.037 3.60469C161.135 2.52656 160.051 1.70625 158.785 1.14375C157.531 0.58125 156.125 0.3 154.566 0.3C153.055 0.3 151.666 0.58125 150.4 1.14375C149.146 1.70625 148.063 2.52656 147.148 3.60469C146.234 4.67109 145.525 5.96602 145.021 7.48945C144.529 9.00117 144.283 10.718 144.283 12.6398V14.257C144.283 16.1789 144.535 17.9016 145.039 19.425C145.543 20.9484 146.252 22.2434 147.166 23.3098C148.092 24.3762 149.182 25.1906 150.436 25.7531C151.701 26.3156 153.09 26.5969 154.602 26.5969C156.16 26.5969 157.566 26.3156 158.82 25.7531ZM160.746 8.63992L160.745 8.63721C160.448 7.49518 160.011 6.54829 159.442 5.78859C158.872 5.0292 158.177 4.45773 157.356 4.06924L157.355 4.06857C156.545 3.68051 155.618 3.48281 154.566 3.48281C153.552 3.48281 152.642 3.67979 151.831 4.06827C151.033 4.45637 150.343 5.02814 149.761 5.78964C149.19 6.55083 148.742 7.49934 148.422 8.64261C148.103 9.78251 147.941 11.102 147.941 12.6047V14.257C147.941 15.7712 148.102 17.1025 148.422 18.2543C148.741 19.3963 149.195 20.3503 149.777 21.1233C150.372 21.8856 151.068 22.4578 151.866 22.8461C152.677 23.2346 153.587 23.4316 154.602 23.4316C155.665 23.4316 156.598 23.2337 157.407 22.8459C158.217 22.4579 158.899 21.8871 159.458 21.1281L159.458 21.1275C160.029 20.3554 160.465 19.4018 160.762 18.2597C161.059 17.106 161.21 15.7728 161.21 14.257V12.6047C161.21 11.1013 161.054 9.78079 160.746 8.63992ZM151.736 23.1164C150.893 22.7062 150.16 22.1027 149.539 21.3059C148.93 20.4973 148.461 19.507 148.133 18.3352C147.805 17.1516 147.641 15.7922 147.641 14.257V12.6047C147.641 11.0813 147.805 9.73359 148.133 8.56172C148.461 7.38984 148.924 6.40547 149.521 5.60859C150.131 4.81172 150.857 4.2082 151.701 3.79805C152.557 3.38789 153.512 3.18281 154.566 3.18281C155.656 3.18281 156.629 3.38789 157.484 3.79805C158.352 4.2082 159.084 4.81172 159.682 5.60859C160.279 6.40547 160.73 7.38984 161.035 8.56172C161.352 9.73359 161.51 11.0813 161.51 12.6047V14.257C161.51 15.7922 161.357 17.1516 161.053 18.3352C160.748 19.507 160.297 20.4973 159.699 21.3059C159.113 22.1027 158.393 22.7062 157.537 23.1164C156.682 23.5266 155.703 23.7316 154.602 23.7316C153.547 23.7316 152.592 23.5266 151.736 23.1164Z" fill="#2FB76B"/>
<path fill-rule="evenodd" clip-rule="evenodd" d="M131.451 0.651562H122.979V26.2453H126.371V15.8742H132.375L137.938 26.2453H141.559V26.0344L135.547 15.166C135.642 15.1298 135.735 15.0924 135.827 15.0538C136.504 14.7709 137.114 14.4233 137.656 14.0109C138.547 13.3313 139.227 12.5109 139.695 11.55C140.176 10.5773 140.416 9.50508 140.416 8.3332C140.416 6.66914 140.064 5.26875 139.361 4.13203C138.67 2.98359 137.656 2.11641 136.32 1.53047C134.996 0.944531 133.373 0.651562 131.451 0.651562ZM136.441 1.25594C135.069 0.648641 133.402 0.351562 131.451 0.351562H122.679V26.5453H126.671V16.1742H132.195L137.758 26.5453H141.859V25.9569L135.973 15.3178C136.66 15.0283 137.281 14.6726 137.838 14.2498C138.763 13.5434 139.474 12.687 139.965 11.6824C140.467 10.6653 140.716 9.54721 140.716 8.3332C140.716 6.62772 140.356 5.16997 139.617 3.97575C138.891 2.77034 137.828 1.86422 136.441 1.25594ZM126.371 13.1145H131.557C132.775 13.1145 133.789 12.9035 134.598 12.4816C135.406 12.048 136.016 11.468 136.426 10.7414C136.836 10.0148 137.041 9.21211 137.041 8.3332C137.041 7.34883 136.848 6.4875 136.461 5.74922C136.074 5.01094 135.465 4.44258 134.633 4.04414C133.813 3.63398 132.752 3.42891 131.451 3.42891H126.371V13.1145ZM126.671 3.72891V12.8145H131.557C132.742 12.8145 133.704 12.6092 134.457 12.2164C135.22 11.807 135.785 11.2657 136.165 10.5939C136.548 9.9148 136.741 9.1633 136.741 8.3332C136.741 7.38855 136.556 6.57661 136.195 5.88842C135.842 5.21361 135.283 4.68835 134.503 4.31472L134.499 4.31251C133.734 3.93003 132.724 3.72891 131.451 3.72891H126.671Z" fill="#2FB76B"/>
<path fill-rule="evenodd" clip-rule="evenodd" d="M109.707 16.2082C111.641 16.2082 113.275 15.9094 114.611 15.3117C115.947 14.7023 116.961 13.8176 117.652 12.6574C118.344 11.4973 118.689 10.0969 118.689 8.45625C118.689 6.94453 118.344 5.60273 117.652 4.43086C116.961 3.24727 115.947 2.32148 114.611 1.65352C113.275 0.985547 111.641 0.651562 109.707 0.651562H100.268V26.2453H103.66V16.2082H109.707ZM103.66 13.4484H109.707C111.031 13.4484 112.104 13.2375 112.924 12.8156C113.744 12.3938 114.342 11.8078 114.717 11.0578C115.104 10.3078 115.297 9.45234 115.297 8.49141C115.297 7.6125 115.104 6.78633 114.717 6.01289C114.342 5.23945 113.744 4.61836 112.924 4.14961C112.104 3.66914 111.031 3.42891 109.707 3.42891H103.66V13.4484ZM103.96 3.72891H109.707C110.998 3.72891 112.013 3.9635 112.772 4.40847L112.775 4.41008C113.548 4.85194 114.101 5.43013 114.447 6.14377L114.448 6.14705C114.814 6.87813 114.997 7.65828 114.997 8.49141C114.997 9.4112 114.812 10.2184 114.45 10.9203L114.448 10.9236C114.105 11.6109 113.556 12.153 112.787 12.5488C112.023 12.9415 111.003 13.1484 109.707 13.1484H103.96V3.72891ZM103.96 16.5082V26.5453H99.9676V0.351562H109.707C111.674 0.351562 113.357 0.69118 114.746 1.38519C116.128 2.07667 117.188 3.04086 117.911 4.279C118.632 5.50191 118.989 6.89727 118.989 8.45625C118.989 10.1393 118.635 11.5953 117.91 12.811C117.185 14.0282 116.122 14.9523 114.736 15.5847L114.734 15.5856C113.349 16.2051 111.67 16.5082 109.707 16.5082H103.96Z" fill="#2FB76B"/>
<path d="M93.1934 0.651611V26.2454H87.9375V0.651611H93.1934Z" fill="#121A52"/>
<path d="M82.998 0.651611V26.2454H77.7246L67.4414 9.08911V26.2454H62.168V0.651611H67.4414L77.7422 17.8254V0.651611H82.998Z" fill="#121A52"/>
<path d="M52.5703 0.651611H57.8262V17.5618C57.8262 19.5305 57.4043 21.1887 56.5605 22.5364C55.7285 23.884 54.5742 24.8977 53.0977 25.5774C51.6328 26.2571 49.9453 26.5969 48.0352 26.5969C46.125 26.5969 44.4258 26.2571 42.9375 25.5774C41.4609 24.8977 40.3008 23.884 39.457 22.5364C38.625 21.1887 38.209 19.5305 38.209 17.5618V0.651611H43.4824V17.5618C43.4824 18.7102 43.6641 19.6477 44.0273 20.3743C44.3906 21.1008 44.9121 21.634 45.5918 21.9739C46.2832 22.3137 47.0977 22.4836 48.0352 22.4836C48.9961 22.4836 49.8105 22.3137 50.4785 21.9739C51.1582 21.634 51.6738 21.1008 52.0254 20.3743C52.3887 19.6477 52.5703 18.7102 52.5703 17.5618V0.651611Z" fill="#121A52"/>
<path fill-rule="evenodd" clip-rule="evenodd" d="M19.2174 2.50625H6.7826V23.9845H19.2174V2.50625ZM4.52174 2.50623H5.65217V23.9845H4.52174V2.50623ZM3.3913 23.9845H2.26087L2.26087 2.50623H3.3913V23.9845ZM24.8695 23.9845H20.3478V2.50625H24.8695V23.9845ZM2.26087 26.2453H0V23.9845V2.50623V0.245361H2.26087H20.3478H26C27.2486 0.245361 28.2609 1.25759 28.2609 2.50623V23.9845C28.2609 25.2331 27.2486 26.2453 26 26.2453V26.2453H3.3913V26.2453H2.26087ZM16.9565 21.1584H7.91304V20.028H16.9565V21.1584ZM21.4782 21.1584H23.7391V20.028H21.4782V21.1584ZM16.9565 17.7671H7.91304V16.6367H16.9565V17.7671ZM21.4782 17.7671H23.7391V16.6367H21.4782V17.7671ZM16.9565 14.3758H7.91304V13.2454H16.9565V14.3758ZM21.4782 14.3758H23.7391V13.2454H21.4782V14.3758ZM16.9565 10.9845H7.91304V9.85406H16.9565V10.9845ZM21.4782 10.9845H23.7391V9.85406H21.4782V10.9845ZM13 7.5932H8.47826V6.46276H13V7.5932Z" fill="#2FB76B"/>
</svg>
